{
  "accessors": [
    {
      "bufferView": 2,
      "componentType": 5126,
      "count": 961,
      "max": [
        1.551612377166748,
        0.6836473345756531,
        1.8852425813674927
      ],
      "min": [
        -1.233970284461975,
        -1.4705954790115356,
        -1.9136238098144531
      ],
      "type": "VEC3"
    },
    {
      "bufferView": 2,
      "byteOffset": 11532,
      "componentType": 5126,
      "count": 961,
      "max": [
        1.0,
        1.0,
        1.0
      ],
      "min": [
        -1.0,
        -1.0,
        -1.0
      ],
      "type": "VEC3"
    },
    {
      "bufferView": 1,
      "componentType": 5126,
      "count": 961,
      "max": [
        1.0000001192092896,
        0.9926471710205078
      ],
      "min": [
        0.0001600889372639358,
        0.00037275973591022193
      ],
      "type": "VEC2"
    },
    {
      "bufferView": 0,
      "componentType": 5125,
      "count": 2145,
      "type": "SCALAR"
    },
    {
      "bufferView": 2,
      "byteOffset": 23064,
      "componentType": 5126,
      "count": 884,
      "max": [
        1.5758196115493774,
        0.7138769626617432,
        1.9099959135055542
      ],
      "min": [
        -1.2566499710083008,
        -1.4705954790115356,
        -1.9188369512557983
      ],
      "type": "VEC3"
    },
    {
      "bufferView": 2,
      "byteOffset": 33672,
      "componentType": 5126,
      "count": 884,
      "max": [
        1.0,
        1.0,
        1.0
      ],
      "min": [
        -1.0,
        -1.0,
        -1.0
      ],
      "type": "VEC3"
    },
    {
      "bufferView": 1,
      "byteOffset": 7688,
      "componentType": 5126,
      "count": 884,
      "max": [
        1.0000001192092896,
        0.9926471710205078
      ],
      "min": [
        0.0001600889372639358,
        0.00037275973591022193
      ],
      "type": "VEC2"
    },
    {
      "bufferView": 0,
      "byteOffset": 8580,
      "componentType": 5125,
      "count": 2085,
      "type": "SCALAR"
    },
    {
      "bufferView": 2,
      "byteOffset": 44280,
      "componentType": 5126,
      "count": 25655,
      "max": [
        2.1442933082580566,
        0.6720253229141235,
        -0.25213539600372314
      ],
      "min": [
        -0.8941237926483154,
        -2.60333251953125,
        -4.3627119064331055
      ],
      "type": "VEC3"
    },
    {
      "bufferView": 2,
      "byteOffset": 352140,
      "componentType": 5126,
      "count": 25655,
      "max": [
        0.9999819993972778,
        0.9999644756317139,
        0.9999138712882996
      ],
      "min": [
        -0.9999819993972778,
        -0.9999644160270691,
        -0.9999138712882996
      ],
      "type": "VEC3"
    },
    {
      "bufferView": 1,
      "byteOffset": 14760,
      "componentType": 5126,
      "count": 25655,
      "max": [
        0.9935559630393982,
        0.9919240474700928
      ],
      "min": [
        0.007756933569908142,
        0.008275002241134644
      ],
      "type": "VEC2"
    },
    {
      "bufferView": 0,
      "byteOffset": 16920,
      "componentType": 5125,
      "count": 74139,
      "type": "SCALAR"
    },
    {
      "bufferView": 2,
      "byteOffset": 660000,
      "componentType": 5126,
      "count": 25333,
      "max": [
        2.1577706336975098,
        0.6822519302368164,
        -0.23514510691165924
      ],
      "min": [
        -0.911062479019165,
        -2.6202542781829834,
        -4.377130508422852
      ],
      "type": "VEC3"
    },
    {
      "bufferView": 2,
      "byteOffset": 963996,
      "componentType": 5126,
      "count": 25333,
      "max": [
        0.999998152256012,
        0.9998431205749512,
        0.9999971985816956
      ],
      "min": [
        -0.999998152256012,
        -0.999964714050293,
        -0.999999463558197
      ],
      "type": "VEC3"
    },
    {
      "bufferView": 1,
      "byteOffset": 220000,
      "componentType": 5126,
      "count": 25333,
      "max": [
        0.9935559630393982,
        0.9919240474700928
      ],
      "min": [
        0.007756933569908142,
        0.008275002241134644
      ],
      "type": "VEC2"
    },
    {
      "bufferView": 0,
      "byteOffset": 313476,
      "componentType": 5125,
      "count": 73281,
      "type": "SCALAR"
    },
    {
      "bufferView": 2,
      "byteOffset": 1267992,
      "componentType": 5126,
      "count": 821,
      "max": [
        0.6943060755729675,
        0.3288450241088867,
        0.29157111048698425
      ],
      "min": [
        -0.31557172536849976,
        -0.17730258405208588,
        -0.5881137847900391
      ],
      "type": "VEC3"
    },
    {
      "bufferView": 2,
      "byteOffset": 1277844,
      "componentType": 5126,
      "count": 821,
      "max": [
        0.9912514090538025,
        0.9956218600273132,
        0.9974365234375
      ],
      "min": [
        -0.991296648979187,
        -0.9956207871437073,
        -0.9978868365287781
      ],
      "type": "VEC3"
    },
    {
      "bufferView": 1,
      "byteOffset": 422664,
      "componentType": 5126,
      "count": 821,
      "max": [
        0.9865110516548157,
        0.9911870956420898
      ],
      "min": [
        0.5879438519477844,
        0.6125855445861816
      ],
      "type": "VEC2"
    },
    {
      "bufferView": 0,
      "byteOffset": 606600,
      "componentType": 5125,
      "count": 3444,
      "type": "SCALAR"
    },
    {
      "bufferView": 2,
      "byteOffset": 1287696,
      "componentType": 5126,
      "count": 821,
      "max": [
        0.7199901342391968,
        0.35525861382484436,
        0.3140335977077484
      ],
      "min": [
        -0.33888667821884155,
        -0.19980381429195404,
        -0.6109205484390259
      ],
      "type": "VEC3"
    },
    {
      "bufferView": 2,
      "byteOffset": 1297548,
      "componentType": 5126,
      "count": 821,
      "max": [
        0.9930199384689331,
        0.9961913824081421,
        0.9967194199562073
      ],
      "min": [
        -0.9891296029090881,
        -0.9957006573677063,
        -0.9980416297912598
      ],
      "type": "VEC3"
    },
    {
      "bufferView": 1,
      "byteOffset": 429232,
      "componentType": 5126,
      "count": 821,
      "max": [
        0.9865110516548157,
        0.9911870956420898
      ],
      "min": [
        0.5879438519477844,
        0.6125855445861816
      ],
      "type": "VEC2"
    },
    {
      "bufferView": 0,
      "byteOffset": 620376,
      "componentType": 5125,
      "count": 3444,
      "type": "SCALAR"
    },
    {
      "bufferView": 2,
      "byteOffset": 1307400,
      "componentType": 5126,
      "count": 624,
      "max": [
        0.39065849781036377,
        -0.2716325521469116,
        -3.1512420177459717
      ],
      "min": [
        -0.561079204082489,
        -1.8958053588867188,
        -4.135114669799805
      ],
      "type": "VEC3"
    },
    {
      "bufferView": 2,
      "byteOffset": 1314888,
      "componentType": 5126,
      "count": 624,
      "max": [
        0.9998487234115601,
        0.9999368190765381,
        0.9995905756950378
      ],
      "min": [
        -0.9996476769447327,
        -0.9998111724853516,
        -0.9999554753303528
      ],
      "type": "VEC3"
    },
    {
      "bufferView": 1,
      "byteOffset": 435800,
      "componentType": 5126,
      "count": 624,
      "max": [
        0.4279918074607849,
        0.8504458665847778
      ],
      "min": [
        0.014016174711287022,
        0.4414788782596588
      ],
      "type": "VEC2"
    },
    {
      "bufferView": 0,
      "byteOffset": 634152,
      "componentType": 5125,
      "count": 1944,
      "type": "SCALAR"
    },
    {
      "bufferView": 2,
      "byteOffset": 1322376,
      "componentType": 5126,
      "count": 624,
      "max": [
        0.42164653539657593,
        -0.24780595302581787,
        -3.127750873565674
      ],
      "min": [
        -0.5883753299713135,
        -1.9296785593032837,
        -4.167725563049316
      ],
      "type": "VEC3"
    },
    {
      "bufferView": 2,
      "byteOffset": 1329864,
      "componentType": 5126,
      "count": 624,
      "max": [
        0.9999418258666992,
        0.9998165965080261,
        0.9997235536575317
      ],
      "min": [
        -0.9999800324440002,
        -0.9998900294303894,
        -0.9997013211250305
      ],
      "type": "VEC3"
    },
    {
      "bufferView": 1,
      "byteOffset": 440792,
      "componentType": 5126,
      "count": 624,
      "max": [
        0.4279918074607849,
        0.8504458665847778
      ],
      "min": [
        0.014016174711287022,
        0.4414788782596588
      ],
      "type": "VEC2"
    },
    {
      "bufferView": 0,
      "byteOffset": 641928,
      "componentType": 5125,
      "count": 1944,
      "type": "SCALAR"
    }
  ],
  "asset": {
    "extras": {
      "author": "Alexis (https://sketchfab.com/alexis.eginard)",
      "license": "CC-BY-4.0 (http://creativecommons.org/licenses/by/4.0/)",
      "source": "https://sketchfab.com/3d-models/3d-stylised-building-from-a-cheryl-young-artwork-c73b38d110114466a2dd8de952d2924d",
      "title": "3d Stylised Building from a Cheryl Young artwork"
    },
    "generator": "Sketchfab-16.21.0",
    "version": "2.0"
  },
  "bufferViews": [
    {
      "buffer": 0,
      "byteLength": 649704,
      "name": "floatBufferViews",
      "target": 34963
    },
    {
      "buffer": 0,
      "byteLength": 445784,
      "byteOffset": 649704,
      "byteStride": 8,
      "name": "floatBufferViews",
      "target": 34962
    },
    {
      "buffer": 0,
      "byteLength": 1337352,
      "byteOffset": 1095488,
      "byteStride": 12,
      "name": "floatBufferViews",
      "target": 34962
    }
  ],
  "buffers": [
    {
      "byteLength": 2432840,
      "uri": "scene.bin"
    }
  ],
  "extensionsUsed": [
    "KHR_materials_unlit"
  ],
  "images": [
    {
      "uri": "textures/Edificio_baseColor.png"
    },
    {
      "uri": "textures/Outline_baseColor.png"
    },
    {
      "uri": "textures/Detalles_baseColor.png"
    }
  ],
  "materials": [
    {
      "doubleSided": true,
      "extensions": {
        "KHR_materials_unlit": {}
      },
      "name": "Edificio",
      "pbrMetallicRoughness": {
        "baseColorTexture": {
          "index": 0
        },
        "metallicFactor": 0.0
      }
    },
    {
      "extensions": {
        "KHR_materials_unlit": {}
      },
      "name": "Outline",
      "pbrMetallicRoughness": {
        "baseColorTexture": {
          "index": 1
        },
        "metallicFactor": 0.0
      }
    },
    {
      "doubleSided": true,
      "extensions": {
        "KHR_materials_unlit": {}
      },
      "name": "Detalles",
      "pbrMetallicRoughness": {
        "baseColorTexture": {
          "index": 2
        },
        "metallicFactor": 0.0
      }
    }
  ],
  "meshes": [
    {
      "name": "Edificio_Edificio_0",
      "primitives": [
        {
          "attributes": {
            "NORMAL": 1,
            "POSITION": 0,
            "TEXCOORD_0": 2
          },
          "indices": 3,
          "material": 0,
          "mode": 4
        }
      ]
    },
    {
      "name": "Edificio_Outline_0",
      "primitives": [
        {
          "attributes": {
            "NORMAL": 5,
            "POSITION": 4,
            "TEXCOORD_0": 6
          },
          "indices": 7,
          "material": 1,
          "mode": 4
        }
      ]
    },
    {
      "name": "Detalles_Detalles_0",
      "primitives": [
        {
          "attributes": {
            "NORMAL": 9,
            "POSITION": 8,
            "TEXCOORD_0": 10
          },
          "indices": 11,
          "material": 2,
          "mode": 4
        }
      ]
    },
    {
      "name": "Detalles_Outline_0",
      "primitives": [
        {
          "attributes": {
            "NORMAL": 13,
            "POSITION": 12,
            "TEXCOORD_0": 14
          },
          "indices": 15,
          "material": 1,
          "mode": 4
        }
      ]
    },
    {
      "name": "Detalles.001_Detalles_0",
      "primitives": [
        {
          "attributes": {
            "NORMAL": 17,
            "POSITION": 16,
            "TEXCOORD_0": 18
          },
          "indices": 19,
          "material": 2,
          "mode": 4
        }
      ]
    },
    {
      "name": "Detalles.001_Outline_0",
      "primitives": [
        {
          "attributes": {
            "NORMAL": 21,
            "POSITION": 20,
            "TEXCOORD_0": 22
          },
          "indices": 23,
          "material": 1,
          "mode": 4
        }
      ]
    },
    {
      "name": "Detalles.002_Detalles_0",
      "primitives": [
        {
          "attributes": {
            "NORMAL": 25,
            "POSITION": 24,
            "TEXCOORD_0": 26
          },
          "indices": 27,
          "material": 2,
          "mode": 4
        }
      ]
    },
    {
      "name": "Detalles.002_Outline_0",
      "primitives": [
        {
          "attributes": {
            "NORMAL": 29,
            "POSITION": 28,
            "TEXCOORD_0": 30
          },
          "indices": 31,
          "material": 1,
          "mode": 4
        }
      ]
    }
  ],
  "nodes": [
    {
      "children": [
        1
      ],
      "matrix": [
        1.0,
        0.0,
        0.0,
        0.0,
        0.0,
        2.220446049250313e-16,
        -1.0,
        0.0,
        0.0,
        1.0,
        2.220446049250313e-16,
        0.0,
        0.0,
        0.0,
        0.0,
        1.0
      ],
      "name": "Sketchfab_model"
    },
    {
      "children": [
        2
      ],
      "matrix": [
        0.009999999776482582,
        0.0,
        0.0,
        0.0,
        0.0,
        0.0,
        0.009999999776482582,
        0.0,
        0.0,
        -0.009999999776482582,
        0.0,
        0.0,
        0.0,
        0.0,
        0.0,
        1.0
      ],
      "name": "StylisedAnimeBuilding.fbx"
    },
    {
      "children": [
        3,
        6,
        9,
        12
      ],
      "name": "RootNode"
    },
    {
      "children": [
        4,
        5
      ],
      "matrix": [
        100.0,
        0.0,
        0.0,
        0.0,
        0.0,
        -1.629206793918314e-05,
        -99.99999999999868,
        0.0,
        0.0,
        99.99999999999868,
        -1.629206793918314e-05,
        0.0,
        0.0,
        -25.066396713256836,
        0.0,
        1.0
      ],
      "name": "Edificio"
    },
    {
      "mesh": 0,
      "name": "Edificio_Edificio_0"
    },
    {
      "mesh": 1,
      "name": "Edificio_Outline_0"
    },
    {
      "children": [
        7,
        8
      ],
      "matrix": [
        99.95666491598949,
        -2.3070929336727666,
        1.8282398825077075,
        0.0,
        1.7712017344070636,
        -2.4689788442889617,
        -99.9538319113452,
        0.0,
        2.3511666488837686,
        99.9428986508228,
        -2.4270456401769875,
        0.0,
        -33.41714859008789,
        214.29541015625,
        -44.825313568115234,
        1.0
      ],
      "name": "Detalles"
    },
    {
      "mesh": 2,
      "name": "Detalles_Detalles_0"
    },
    {
      "mesh": 3,
      "name": "Detalles_Outline_0"
    },
    {
      "children": [
        10,
        11
      ],
      "matrix": [
        99.95666491598949,
        -2.3070929336727666,
        1.8282398825077075,
        0.0,
        1.7712017344070636,
        -2.4689788442889617,
        -99.9538319113452,
        0.0,
        2.3511666488837686,
        99.9428986508228,
        -2.4270456401769875,
        0.0,
        -33.41714859008789,
        214.29541015625,
        -44.825313568115234,
        1.0
      ],
      "name": "Detalles.001"
    },
    {
      "mesh": 4,
      "name": "Detalles.001_Detalles_0"
    },
    {
      "mesh": 5,
      "name": "Detalles.001_Outline_0"
    },
    {
      "children": [
        13,
        14
      ],
      "matrix": [
        99.95666491598949,
        -2.3070929336727666,
        1.8282398825077075,
        0.0,
        1.7712017344070636,
        -2.4689788442889617,
        -99.9538319113452,
        0.0,
        2.3511666488837686,
        99.9428986508228,
        -2.4270456401769875,
        0.0,
        -33.41714859008789,
        214.29541015625,
        -44.825313568115234,
        1.0
      ],
      "name": "Detalles.002"
    },
    {
      "mesh": 6,
      "name": "Detalles.002_Detalles_0"
    },
    {
      "mesh": 7,
      "name": "Detalles.002_Outline_0"
    }
  ],
  "samplers": [
    {
      "magFilter": 9729,
      "minFilter": 9987,
      "wrapS": 10497,
      "wrapT": 10497
    }
  ],
  "scene": 0,
  "scenes": [
    {
      "name": "Sketchfab_Scene",
      "nodes": [
        0
      ]
    }
  ],
  "textures": [
    {
      "sampler": 0,
      "source": 0
    },
    {
      "sampler": 0,
      "source": 1
    },
    {
      "sampler": 0,
      "source": 2
    }
  ]
}
